name Walk3.mot
datacolumns 19
datarows 12
range 1.59500000 1.65000000
endheader

                time	   L_ground_force_vx	   L_ground_force_vy	   L_ground_force_vz	   L_ground_force_px	   L_ground_force_py	   L_ground_force_pz	   R_ground_force_vx	   R_ground_force_vy	   R_ground_force_vz	   R_ground_force_px	   R_ground_force_py	   R_ground_force_pz	   L_ground_torque_x	   L_ground_torque_y	   L_ground_torque_z	   R_ground_torque_x	   R_ground_torque_y	   R_ground_torque_z	
          1.59500000	         41.79139208	        939.65309539	         80.95372607	         -0.24101145	          0.00000000	         -0.06455640	         -0.02593606	          0.66090013	          0.02460747	          0.00035038	          0.00000000	          0.00019030	          0.00000000	         -3.79105268	          0.00000000	          0.00000000	          0.00712410	          0.00000000	
          1.60000000	         44.74376114	        947.01041361	         82.27502694	         -0.23885102	          0.00000000	         -0.06510843	         -0.03795701	          0.81426562	          0.02784570	          0.00040344	          0.00000000	          0.00021825	          0.00000000	         -3.75126404	          0.00000000	          0.00000000	          0.01018767	          0.00000000	
          1.60500000	         47.68615738	        954.46947073	         83.42993973	         -0.23673479	          0.00000000	         -0.06561673	         -0.05202105	          0.95299883	          0.02946118	          0.00043643	          0.00000000	          0.00023493	          0.00000000	         -3.72038605	          0.00000000	          0.00000000	          0.01370852	          0.00000000	
          1.61000000	         50.62415408	        961.98195489	         84.41293330	         -0.23467390	          0.00000000	         -0.06607485	         -0.06753659	          1.05180507	          0.02834692	          0.00043404	          0.00000000	          0.00023196	          0.00000000	         -3.70012489	          0.00000000	          0.00000000	          0.01750822	          0.00000000	
          1.61500000	         53.58175390	        969.50052338	         85.21988315	         -0.23267997	          0.00000000	         -0.06647728	         -0.08340204	          1.07616442	          0.02311340	          0.00037679	          0.00000000	          0.00019872	          0.00000000	         -3.69123407	          0.00000000	          0.00000000	          0.02127413	          0.00000000	
          1.62000000	         56.60229825	        976.98005410	         85.84893021	         -0.23076426	          0.00000000	         -0.06681957	         -0.09785650	          0.98142860	          0.01210182	          0.00024104	          0.00000000	          0.00012239	          0.00000000	         -3.69381249	          0.00000000	          0.00000000	          0.02452293	          0.00000000	
          1.62500000	         59.74509580	        984.37477886	         86.30302239	         -0.22893624	          0.00000000	         -0.06709990	         -0.10832802	          0.71266178	         -0.00656190	         -0.00000037	          0.00000000	         -0.00001175	          0.00000000	         -3.70661787	          0.00000000	          0.00000000	          0.02656466	          0.00000000	
          1.63000000	         63.07878140	        991.63338681	         86.59260855	         -0.22720348	          0.00000000	         -0.06731891	         -0.11129722	          0.20566105	         -0.03485647	         -0.00037677	          0.00000000	         -0.00021946	          0.00000000	         -3.72743377	          0.00000000	          0.00000000	          0.02647233	          0.00000000	
          1.63500000	         66.67297554	        998.69672460	         86.73678225	         -0.22557203	          0.00000000	         -0.06747934	         -0.10220126	         -0.61030939	         -0.07467965	         -0.00091726	          0.00000000	         -0.00051630	          0.00000000	         -3.75320814	          0.00000000	          0.00000000	          0.02306358	          0.00000000	
          1.64000000	         70.59004974	       1005.49815172	         86.76317089	         -0.22404554	          0.00000000	         -0.06758676	         -0.07541291	         -1.80744885	         -0.12756903	         -0.00164697	          0.00000000	         -0.00091551	          0.00000000	         -3.77970798	          0.00000000	          0.00000000	          0.01490365	          0.00000000	
          1.64500000	         74.87828505	       1011.96599509	         86.70727098	         -0.22262449	          0.00000000	         -0.06764909	         -0.02433917	         -3.45133464	         -0.19431080	         -0.00258174	          0.00000000	         -0.00142513	          0.00000000	         -3.80210431	          0.00000000	          0.00000000	          0.00034118	          0.00000000	
          1.65000000	         79.56774259	       1018.02632212	         86.61105863	         -0.22130656	          0.00000000	         -0.06767446	          0.05830588	         -5.58913031	         -0.27442259	         -0.00372100	          0.00000000	         -0.00204405	          0.00000000	         -3.81645437	          0.00000000	          0.00000000	         -0.02240932	          0.00000000	
